<svg
  class="icon__svg"
  xmlns="http://www.w3.org/2000/svg"
  xmlns:xlink="http://www.w3.org/1999/xlink"
  viewBox="31 44 131 104"
  enable-background="new 31 44 131 104"
  xml:space="preserve"
>
  <title>Medium</title>
  <g>
    <g>
      <path
        d="M46.534,65.216c0.163-1.608-0.451-3.198-1.651-4.28L32.651,46.201V44H70.63l29.356,64.381
                      L125.795,44H162v2.201l-10.458,10.027c-0.901,0.688-1.349,1.817-1.162,2.935v73.674c-0.187,1.118,0.261,2.247,1.162,2.935
                      l10.214,10.027V148h-51.373v-2.201l10.58-10.271c1.04-1.039,1.04-1.346,1.04-2.935V73.042l-29.417,74.714h-3.975L54.362,73.042
                      v50.073c-0.286,2.105,0.414,4.226,1.896,5.748l13.76,16.691v2.201H31v-2.201l13.761-16.691c1.471-1.525,2.13-3.658,1.773-5.748
                      V65.216z"
      ></path>
    </g>
  </g>
</svg>
