<svg class="icon__svg" viewBox="25 -7.117 879 714.118">
  <title>Twitter</title>
  <path
    d="M800 105.883c39.333-24 65.667-57.333 79-100-35.333 21.333-73.333 36-114 44-35.333-38-79.333-57-132-57-49.333.667-91.667 18.333-127 53s-53 77-53 127c0 13.333 1.667 27 5 41-74.667-3.333-144-21.667-208-55s-118.666-77.667-164-133c-16.666 28-25 58.332-25 91 0 31.332 7.334 60 22 86s34.334 47.332 59 64c-29.334-1.334-56.666-9-82-23v2c0 44 13.666 82.334 41 115s62 53.334 104 62c-16 4-32 6-48 6-10 0-21.334-1-34-3 12 36 33.334 65.666 64 89s65.666 35.332 105 35.998c-65.334 51.336-140 77.002-224 77.002-16 0-30.334-.666-43-2 83.334 54 175.334 81 276 81 64.667 1.332 125-8.668 181-30.002s104-48.666 144-82 74.333-72.334 103-117 50-91 64-139 21-96.333 21-145v-23c35.333-26 65.333-57 90-93-34.667 14.668-69.333 24.001-104 28.002z"
  ></path>
</svg>
