<svg
  class="icon__svg"
  version="1.1"
  xmlns="http://www.w3.org/2000/svg"
  xmlns:xlink="http://www.w3.org/1999/xlink"
  x="0px"
  y="0px"
  viewBox="0 59.97 400.002 280.06"
  enable-background="new 0 59.97 400.002 280.06"
  xml:space="preserve"
>
  <title>YouTube</title>
  <g id="Layer_2"></g>
  <g id="Layer_1">
    <g>
      <path
        d="M391.76,103.79c-4.609-17.13-18.12-30.64-35.25-35.26C325.21,59.97,200,59.97,200,59.97
                        s-125.21,0-156.51,8.23c-16.8,4.62-30.64,18.46-35.25,35.59C0,135.09,0,200,0,200s0,65.24,8.24,96.21
                        c4.61,17.13,18.12,30.64,35.25,35.26C75.12,340.03,200,340.03,200,340.03s125.21,0,156.51-8.23
                        c17.13-4.62,30.641-18.12,35.25-35.26c8.24-31.3,8.24-96.21,8.24-96.21S400.33,135.09,391.76,103.79z M160.13,259.97V140.03
                        L264.25,200L160.13,259.97z"
      ></path>
    </g>
  </g>
</svg>
